<svg width="2041" height="462" viewBox="0 0 2041 462" fill="none" xmlns="http://www.w3.org/2000/svg">
<g clip-path="url(#clip0_163_9728)">
<path d="M554.296 369C549.331 369 545.019 367.171 541.36 363.512C537.963 359.592 536.264 354.757 536.264 349.008V174.176C536.264 146.997 543.581 126.221 558.216 111.848C573.112 97.4747 594.541 90.288 622.504 90.288C695.677 90.288 732.264 137.72 732.264 232.584C732.264 278.84 723.117 313.205 704.824 335.68C686.531 357.893 658.437 369 620.544 369H554.296ZM592.712 322.744H620.544C639.883 322.744 653.864 315.296 662.488 300.4C671.373 285.243 675.816 260.939 675.816 227.488C675.816 195.605 671.765 173 663.664 159.672C655.824 146.083 642.365 139.288 623.288 139.288C602.904 139.288 592.712 146.736 592.712 161.632V322.744ZM854.678 372.136C826.716 372.136 804.633 364.165 788.43 348.224C772.228 332.283 764.126 306.541 764.126 271C764.126 235.197 772.228 209.456 788.43 193.776C804.633 177.835 826.716 169.864 854.678 169.864C882.641 169.864 904.724 177.835 920.926 193.776C937.129 209.456 945.23 235.197 945.23 271C945.23 306.541 937.129 332.283 920.926 348.224C904.724 364.165 882.641 372.136 854.678 372.136ZM854.678 325.096C861.996 325.096 868.137 323.659 873.102 320.784C878.068 317.648 881.857 312.16 884.47 304.32C887.345 296.48 888.782 285.373 888.782 271C888.782 256.627 887.345 245.52 884.47 237.68C881.857 229.84 878.068 224.483 873.102 221.608C868.137 218.472 861.996 216.904 854.678 216.904C847.622 216.904 841.481 218.472 836.254 221.608C831.289 224.483 827.369 229.84 824.494 237.68C821.881 245.52 820.574 256.627 820.574 271C820.574 285.373 821.881 296.48 824.494 304.32C827.369 312.16 831.289 317.648 836.254 320.784C841.481 323.659 847.622 325.096 854.678 325.096ZM1011.18 372.136C992.359 372.136 982.951 363.251 982.951 345.48V196.912C982.951 178.88 992.359 169.864 1011.18 169.864C1020.58 169.864 1027.38 171.955 1031.56 176.136C1035.74 180.056 1037.83 186.589 1037.83 195.736C1042.54 187.112 1049.2 180.709 1057.82 176.528C1066.71 172.085 1077.03 169.864 1088.79 169.864C1111.27 169.864 1122.5 179.664 1122.5 199.264C1122.5 206.581 1119.76 212.069 1114.27 215.728C1108.78 219.387 1099.77 221.216 1087.22 221.216C1074.94 221.216 1065.27 222.392 1058.22 224.744C1051.16 226.835 1046.19 230.885 1043.32 236.896C1040.71 242.645 1039.4 251.008 1039.4 261.984V345.48C1039.4 363.251 1029.99 372.136 1011.18 372.136ZM1156.64 372.136C1137.83 372.136 1128.42 363.251 1128.42 345.48V251.4C1128.42 224.744 1134.69 204.491 1147.24 190.64C1160.04 176.789 1178.33 169.864 1202.12 169.864C1234.52 169.864 1256.47 181.493 1267.97 204.752C1279.47 181.493 1301.42 169.864 1333.83 169.864C1357.61 169.864 1375.77 176.789 1388.32 190.64C1401.12 204.491 1407.52 224.744 1407.52 251.4V345.48C1407.52 363.251 1398.12 372.136 1379.3 372.136C1360.48 372.136 1351.08 363.251 1351.08 345.48V254.536C1351.08 241.208 1348.85 231.669 1344.41 225.92C1339.97 219.909 1333.04 216.904 1323.64 216.904C1304.82 216.904 1295.41 229.448 1295.41 254.536V343.912C1295.41 361.683 1286.27 370.568 1267.97 370.568C1249.68 370.568 1240.53 361.683 1240.53 343.912V254.536C1240.53 229.448 1231.12 216.904 1212.31 216.904C1194.01 216.904 1184.87 229.448 1184.87 254.536V345.48C1184.87 363.251 1175.46 372.136 1156.64 372.136ZM1478.69 369C1459.87 369 1450.47 358.808 1450.47 338.424V120.864C1450.47 100.48 1459.87 90.288 1478.69 90.288C1497.51 90.288 1506.91 100.48 1506.91 120.864V294.912C1506.91 299.093 1506.52 304.451 1505.74 310.984C1505.22 317.256 1504.56 322.483 1503.78 326.664C1510.57 318.563 1518.94 314.512 1528.87 314.512H1586.49C1596.16 314.512 1603.61 316.864 1608.83 321.568C1614.06 326.272 1616.67 333.067 1616.67 341.952C1616.67 359.984 1606.61 369 1586.49 369H1478.69ZM1661.59 136.152C1651.92 136.152 1643.82 133.016 1637.29 126.744C1630.75 120.472 1627.49 112.763 1627.49 103.616C1627.49 93.9466 1630.75 85.976 1637.29 79.704C1643.82 73.432 1651.92 70.296 1661.59 70.296C1671.52 70.296 1679.62 73.432 1685.9 79.704C1692.43 85.976 1695.7 93.9466 1695.7 103.616C1695.7 112.763 1692.43 120.472 1685.9 126.744C1679.62 133.016 1671.52 136.152 1661.59 136.152ZM1689.82 345.872C1689.82 363.381 1680.67 372.136 1662.38 372.136C1653.49 372.136 1646.43 370.045 1641.21 365.864C1635.98 361.421 1633.37 354.757 1633.37 345.872V196.52C1633.37 188.157 1635.46 181.624 1639.64 176.92C1644.08 172.216 1651.4 169.864 1661.59 169.864C1671.78 169.864 1678.97 172.216 1683.15 176.92C1687.59 181.624 1689.82 188.157 1689.82 196.52V345.872ZM1774.46 372.136C1764.27 372.136 1756.95 369.261 1752.51 363.512C1748.33 357.501 1746.24 350.053 1746.24 341.168V220.432H1740.75C1721.41 220.432 1711.74 212.592 1711.74 196.912C1711.74 180.971 1721.41 173 1740.75 173H1746.24V171.432C1746.24 141.117 1752.77 116.683 1765.84 98.128C1778.9 79.5733 1798.89 70.296 1825.81 70.296C1826.07 70.296 1826.33 70.296 1826.6 70.296H1826.99C1827.77 70.296 1828.56 70.296 1829.34 70.296C1850.77 70.5573 1866.32 73.5627 1875.99 79.312C1885.92 85.0613 1890.88 93.816 1890.88 105.576C1890.88 114.2 1888.53 119.949 1883.83 122.824C1879.39 125.437 1873.11 126.744 1865.01 126.744C1857.96 126.744 1851.95 126.221 1846.98 125.176C1842.28 123.869 1836.13 122.955 1828.56 122.432H1826.2C1815.75 122.432 1808.96 126.483 1805.82 134.584C1802.68 142.424 1801.12 152.093 1801.12 163.592V173H1823.46C1841.23 173 1850.12 180.971 1850.12 196.912C1850.12 212.592 1841.23 220.432 1823.46 220.432H1801.12V341.168C1801.12 351.883 1798.76 359.723 1794.06 364.688C1789.62 369.653 1783.08 372.136 1774.46 372.136ZM1960.12 372.136C1933.99 372.136 1913.48 367.824 1898.58 359.2C1883.95 350.576 1873.49 338.685 1867.22 323.528C1861.21 308.371 1858.2 290.992 1858.2 271.392C1858.2 235.328 1866.18 209.456 1882.12 193.776C1898.06 177.835 1919.49 169.864 1946.4 169.864C1962.61 169.864 1976.98 172.608 1989.52 178.096C2002.07 183.584 2011.87 191.424 2018.92 201.616C2025.98 211.547 2029.51 223.699 2029.51 238.072C2029.51 279.885 1999.72 300.792 1940.13 300.792H1917.4C1919.49 308.893 1922.88 315.296 1927.59 320C1932.55 324.443 1941.18 326.664 1953.46 326.664C1960.26 326.664 1965.74 326.272 1969.92 325.488C1974.11 324.704 1978.03 323.92 1981.68 323.136C1985.6 322.352 1990.05 321.96 1995.01 321.96C2002.07 321.96 2007.69 323.267 2011.87 325.88C2016.05 328.232 2018.14 333.197 2018.14 340.776C2018.14 351.491 2013.44 359.461 2004.03 364.688C1994.88 369.653 1980.25 372.136 1960.12 372.136ZM1914.65 271.784C1916.74 268.909 1919.1 267.08 1921.71 266.296C1924.32 265.251 1928.37 264.728 1933.86 264.728C1949.28 264.728 1959.86 263.291 1965.61 260.416C1971.62 257.28 1974.63 251.792 1974.63 243.952C1974.63 234.021 1971.88 226.443 1966.4 221.216C1960.91 215.728 1953.98 212.984 1945.62 212.984C1935.95 212.984 1928.37 217.035 1922.88 225.136C1917.4 233.237 1914.65 248.787 1914.65 271.784Z" fill="#4059AD"/>
<path fill-rule="evenodd" clip-rule="evenodd" d="M139 26H122V114H139H147V110C147 103.373 152.373 98 159 98H235C241.627 98 247 103.373 247 110V114H255V110C255 103.373 260.373 98 267 98H343C349.627 98 355 103.373 355 110V114H363H380V26H363V44H139V26Z" fill="#4059AD"/>
<line x1="76" y1="342.5" x2="417" y2="342.5" stroke="#6B9AC4" stroke-width="7"/>
<line x1="17" y1="382.5" x2="350" y2="382.5" stroke="#6B9AC4" stroke-width="7"/>
<line x1="128" y1="362.5" x2="325" y2="362.5" stroke="#6B9AC4" stroke-width="7"/>
<path d="M123.508 126H380.364L462 296H119L13 327L123.508 126Z" fill="#6B9AC4"/>
<path d="M39.3238 314.099C47.5574 308.811 57.1365 306 66.9217 306H436.373C407.94 340.624 407.94 391.376 436.373 426H66.9217C57.1365 426 47.5574 423.189 39.3238 417.901C1.52214 393.625 1.52215 338.375 39.3238 314.099Z" stroke="#4059AD" stroke-width="20"/>
</g>
<defs>
<clipPath id="clip0_163_9728">
<rect width="2041" height="462" fill="white"/>
</clipPath>
</defs>
</svg>
